<svg version="1.1" xmlns="http://www.w3.org/2000/svg" xmlns:xlink="http://www.w3.org/1999/xlink" width="328.08984" height="282.89976" viewBox="0,0,328.08984,282.89976"><defs><linearGradient x1="240.00001" y1="12.5228" x2="240.00001" y2="289.97015" gradientUnits="userSpaceOnUse" id="color-1"><stop offset="0" stop-color="#4f411f"/><stop offset="1" stop-color="#2d2a19"/></linearGradient><linearGradient x1="247.21522" y1="159.24444" x2="550.83767" y2="235.38799" gradientTransform="translate(-389.60338,-340.96408) scale(1.57597,1.57597)" gradientUnits="userSpaceOnUse" id="color-2"><stop offset="0" stop-color="#c2a14d"/><stop offset="0.5" stop-color="#8c7339"/><stop offset="1" stop-color="#4a3a1e"/></linearGradient><linearGradient x1="239.99944" y1="220.67074" x2="450.28353" y2="240.33814" gradientTransform="translate(-585.73736,-574.564) scale(2.44057,2.44057)" gradientUnits="userSpaceOnUse" id="color-3"><stop offset="0" stop-color="#c2a14d"/><stop offset="0.5" stop-color="#8c7339"/><stop offset="1" stop-color="#4a3a1e"/></linearGradient><linearGradient x1="239.99966" y1="234.79291" x2="506.34879" y2="255.07638" gradientTransform="translate(-496.9562,-517.67486) scale(2.07065,2.07065)" gradientUnits="userSpaceOnUse" id="color-4"><stop offset="0" stop-color="#c2a14d"/><stop offset="0.5" stop-color="#8c7339"/><stop offset="1" stop-color="#4a3a1e"/></linearGradient><linearGradient x1="240" y1="30.05007" x2="240" y2="167.44049" gradientUnits="userSpaceOnUse" id="color-5"><stop offset="0" stop-color="#b39548"/><stop offset="1" stop-color="#766030"/></linearGradient></defs><g transform="translate(-76.44056,-8.84489)"><g data-paper-data="{&quot;isPaintingLayer&quot;:true}" fill-rule="nonzero" stroke="none" stroke-linecap="butt" stroke-linejoin="miter" stroke-miterlimit="10" stroke-dasharray="" stroke-dashoffset="0" style="mix-blend-mode: normal"><path d="M77.42297,289.97015c0,0 0.39392,-1.87888 0.15787,-3.41626c-0.25521,-1.66213 -1.14182,-3.03003 -1.14027,-4.11124c0.00181,-1.26132 0.99864,-3.78431 0.99864,-3.78431l0.03759,-26.1807c0,0 11.98227,-14.64596 11.98553,-16.91224c0.00346,-2.40741 -11.96536,8.11491 -11.96536,8.11491l0.01367,-9.51937c0,0 14.83639,-14.96209 14.84031,-17.69157c0.00352,-2.45305 -14.81786,8.22809 -14.81786,8.22809l0.22255,-166.42527c0,0 7.65136,6.23158 7.65136,4.65782c0,-1.61787 -7.98403,-12.24036 -7.98403,-12.24036v-14.96787c0,0 0.8594,-3.12553 0.78015,-5.42183c-0.07343,-2.12761 -1.08965,-3.32417 -1.00341,-6.00472c0.03517,-1.09309 1.39561,-2.91995 1.35829,-3.87406c-0.09752,-2.49285 -1.90932,-2.73308 -1.90932,-3.86315c0,-1.4708 0.77429,-4.03524 0.77429,-4.03524c0,0 -0.47801,-3.67789 0.92242,-3.67789c1.31403,0 2.87394,1.97552 6.78951,2.32469c1.86702,0.16649 5.11889,-1.04062 7.31286,-0.90961c1.91376,0.11427 1.74468,1.80198 3.6826,1.95448c1.46804,0.11552 8.00518,-1.34549 9.50084,-1.28005c1.93497,0.08466 3.39272,1.57017 4.78809,1.72075c4.63677,0.50038 6.64078,-0.13237 6.64078,-0.13237h257.02894c0,0 8.49193,-0.93764 13.12705,-0.93764c2.81606,0 6.83587,1.01921 10.30288,1.28431c0.95714,0.07319 1.92118,-1.20299 2.74717,-1.27214c1.3361,-0.11184 2.31094,0.92547 2.31094,0.92547c0,0 1.86428,-0.40255 1.86428,0.39932c0,0.29816 0.2468,1.62877 -0.08118,2.19471c-0.50271,0.86746 -1.68494,1.1124 -1.93046,2.26912c-0.12458,0.58694 1.0628,1.4288 1.05024,1.99083c-0.03922,1.755 -0.90287,2.95658 -0.90287,2.95658v5.03207c0,0 -5.20183,4.49021 -5.20183,5.28834c0,0.81105 5.20183,-0.46019 5.20183,-0.46019v2.74899c0,0 -8.11486,5.22711 -8.11486,5.82606c0,0.70233 8.11486,-1.87266 8.11486,-1.87266v223.21232c0,0 -10.19861,-3.5664 -10.19861,-2.43026c0,1.57005 10.19861,10.97727 10.19861,10.97727v5.65807c0,0 -1.33731,1.66584 -1.02772,2.90211c0.38657,1.54368 2.42499,2.79921 2.27115,3.70963c-0.33218,1.96593 -2.47193,0.75367 -2.47193,2.12427c0,1.53012 1.2285,4.9208 1.2285,4.9208c0,0 -1.75096,1.38803 -3.57627,0.93276c-1.76027,-0.43905 -3.57059,-2.72613 -4.96299,-2.50949c-2.86613,0.44594 -2.87416,3.35122 -4.49385,3.35122c-2.32563,0 -18.52319,-1.7745 -18.52319,-1.7745h-288.25527c0,0 -1.293,0.10078 -1.97659,0.47458c-0.78651,0.43009 -1.00775,1.14113 -1.52915,1.14113c-0.74217,0 -1.83675,-1.61571 -1.83675,-1.61571z" fill="url(#color-1)" stroke-width="0"/><text transform="translate(247.21504,216.35194) scale(0.63453,0.63453)" font-size="100" xml:space="preserve" fill="url(#color-2)" fill-rule="nonzero" stroke="none" stroke-width="1" stroke-linecap="butt" stroke-linejoin="miter" stroke-miterlimit="10" stroke-dasharray="" stroke-dashoffset="0" font-family="Impact, sans-serif" font-weight="400" text-anchor="middle" style="mix-blend-mode: normal"><tspan x="0" dy="0">B.R.A.S.S.</tspan></text><text transform="translate(240.00003,235.42186) scale(0.40974,0.40974)" font-size="40" xml:space="preserve" fill="url(#color-3)" fill-rule="nonzero" stroke="none" stroke-width="1" stroke-linecap="butt" stroke-linejoin="miter" stroke-miterlimit="10" stroke-dasharray="" stroke-dashoffset="0" font-family="Arial Black, sans-serif" font-weight="400" text-anchor="middle" style="mix-blend-mode: normal"><tspan x="0" dy="0">BATTLEFIELD-REGULATED</tspan></text><text transform="translate(240.00003,250.0059) scale(0.48294,0.48294)" font-size="35" xml:space="preserve" fill="url(#color-4)" fill-rule="nonzero" stroke="none" stroke-width="1" stroke-linecap="butt" stroke-linejoin="miter" stroke-miterlimit="10" stroke-dasharray="" stroke-dashoffset="0" font-family="Arial Black, sans-serif" font-weight="400" text-anchor="middle" style="mix-blend-mode: normal"><tspan x="0" dy="0">ASSEMBLY SUBSTITUTE SYNTAX</tspan></text><path d="M267.58959,114.962l17.05131,52.47848l-44.64088,-32.43347l-44.64087,32.43347l17.05131,-52.47848l-44.64088,-32.43347h55.17914l17.05128,-52.47845l17.0513,52.47846h55.17914l-44.64087,32.43348zM240.00002,105.99765l40.58524,55.86078l-15.50219,-47.71082l-25.08305,-8.14996l65.66829,-21.33693h-50.16613l-15.50219,21.33693v-69.04775l-15.50219,47.71082l15.50219,21.33693l-65.66829,-21.33693l40.58524,29.48686l25.08305,-8.14996l-40.58524,55.86078l40.58524,-29.48692v-26.37386z" fill="url(#color-5)" stroke-width="1"/><path d="M239.99999,105.99765l-15.50216,-21.33693l15.50216,-47.71082z" fill="#a08441" stroke-width="1"/><path d="M239.99999,105.99765l15.50219,-21.33693h50.16613z" fill="#947a3c" stroke-width="1"/><path d="M280.58522,161.85843l-40.58524,-55.86078l25.08305,8.14996z" fill="#7a6331" stroke-width="1"/><path d="M239.99999,105.99765v26.37386l-40.58521,29.48692z" fill="#614e28" stroke-width="1"/><path d="M239.99999,105.99765l-25.08305,8.14996l-40.58524,-29.48689z" fill="#846c36" stroke-width="1"/></g></g></svg>